<svg id="Layer_1" data-name="Layer 1" xmlns="http://www.w3.org/2000/svg" xmlns:xlink="http://www.w3.org/1999/xlink" viewBox="0 0 928.94 928.94"><defs><style>.cls-1{fill:#313131;}.cls-2{fill:url(#linear-gradient);}</style><linearGradient id="linear-gradient" x1="208.64" y1="369.53" x2="951.83" y2="430.38" gradientUnits="userSpaceOnUse"><stop offset="0" stop-color="#6ba056"/><stop offset="0.24" stop-color="#628e50"/><stop offset="0.58" stop-color="#313131"/><stop offset="0.7" stop-color="#4c773c"/></linearGradient></defs><path class="cls-1" d="M229.36,662.32c3.91,0,20.81.63,21.75.63s2.35,1.4,2.66,2.19c.63,2.34,2.35,6.1,5.63,13.77,3.44,8,21.75,46.16,26.29,54.61.31.62,1.25.47,2.19-1.41,1.1-2,23.32-46.63,27.07-54,3.29-6.88,4.85-10.17,5.63-12.83A3.89,3.89,0,0,1,323.4,663c2.66,0,15.18-.79,20.18-.79,1.57,0,5,.63,5,3,0,1.4-.94,2.19-4.85,3.13-9.39,2-11.58,4.85-11.58,7.51,0,25.35,1.1,52.1,1.72,62.59.47,11.42,3.45,12.67,9.86,14.86,3.44,1.1,4.85,2.51,4.85,3.44,0,1.57-1.56,2.82-4.54,2.82-1.87,0-16.74-.94-21-.94-4.7,0-7.67.47-11.43.47-2.5,0-4.85-1.09-4.85-2.66,0-1.72,2-2.82,5.32-3.6,5.64-1.56,6.58-3.28,6.73-11.89.16-4.07.16-38.34.16-53.36,0-1.09-1.72-.31-1.88,0-3.29,6-20.18,42.41-22.53,47.26-1.88,3.91-6.73,14.86-8.29,19.4-1.26,3.76-3.6,5.48-5.48,5.48-1.41,0-2.82-2.66-3.91-5.32-1.88-4.07-6.42-16.9-8-21-5.79-14.24-15.65-34.27-20.19-45.38-.15-.15-1.41-1.41-1.56-.15-1.41,13.76-2.82,44.75-2.82,52.73,0,9.39,2,10.32,9.39,12.2,3.6.78,4.22,2.19,4.22,3.6,0,1.72-2.66,2.66-5,2.66-2.19,0-7.67-.47-12.21-.47-5,0-15,.78-17.05.78-3,0-5-.78-5-2.81,0-1.41,1.09-2.51,4.85-3.45,7.2-1.72,10.48-5.47,11.58-12,1.88-10.8,5.79-56.65,5.79-60.4,0-8.92-1.57-10.64-11.89-12.52-2.35-.31-4.23-1.41-4.23-2.5C224.82,663.89,227.48,662.32,229.36,662.32Z"/><path class="cls-1" d="M405.71,694.4a2.13,2.13,0,0,1,1.57.62,3.59,3.59,0,0,1,.93,2.66c-1.25,1.72-3.28,4.85-8.44,12.37-5.79,8.6-19.72,31.76-23.47,38.8,0,0-.32,1.41.15,1.72,2.82,2.19,8.61,2.35,16,2.35,2,0,6.73-1.57,13.77-9.08,2.19-2.34,4.07-4.07,5.79-4.07.78,0,1.88,2.35,1.41,3.76-1.1,3-2.66,8.76-4.23,12.67a6.37,6.37,0,0,1-2.66,2.82c-12,0-15.33-.47-27.38-.47-7.2,0-17.52.78-19.4.78-1.41,0-2.66-2.19-2.66-3.13s3-5.47,5.63-9.23c3.29-4.69,20-31.92,26.76-43.81a1,1,0,0,0-.31-1.57c-2-.62-5.48-.93-17.22-.78-3.91,0-6.41,2.51-11,8-1.09,1.41-2.82,2.66-3.44,2.66-1.25,0-2-1.56-2-2.66,0-2.34,1.57-5.47,2.35-8a37.81,37.81,0,0,0,1.88-6.41,4.34,4.34,0,0,1,2.35-2.82c.62-.31.94-.16,1.56.16,3.29,2.66,5,2.66,7.82,2.81,1.73.16,8.77.47,17.53.47C396,695,403.68,694.4,405.71,694.4Z"/><path class="cls-1" d="M504.13,663.1c3.92,1.1,8.92,2.82,10.17,2.82a3.44,3.44,0,0,1,2.35,2.5c0,2.82.78,12.21.78,16.12,0,4.38-1.72,6.1-3.59,6.1-1.57,0-2.51-2.35-3.13-4.54-1.41-6.57-4.54-11.57-10.8-15-4.85-2.81-11.89-4.22-18.46-4.22-7.52,0-17.53,3.6-23.48,9.23-8.44,7.82-13.14,21.28-13.14,32.39,0,10.17,4.38,23.94,9.23,29.89,8,10,20.5,15.64,30.83,15.64,4.54,0,12.05-2,16.74-4.22,1.41-.78,5.79-4.85,8.61-10,2.5-5,3.75-7,5.32-7,1.72,0,2.81,2.35,2.81,5.32,0,1.41-2.66,11.43-3.6,14.71a11.81,11.81,0,0,1-2.81,3.29c-4.85,2.34-19.56,5.32-29.11,5.32-16.89,0-32.7-5.32-42.56-16.28a49.94,49.94,0,0,1-12.51-33.32c0-17.84,7.82-32.08,21.59-41.63,7-4.85,18.46-10,35.52-10A73,73,0,0,1,504.13,663.1Z"/><path class="cls-1" d="M574.71,699.09c3.13,2.82,5.32,10.17,5.32,13.46,0,5.94-.63,12.52-.63,30,0,5.16,2.66,7.67,5.64,7.67a16.75,16.75,0,0,0,5.32-1.41c.62-.31,1.4,1.25,1.4,2.5a18,18,0,0,1-1.4,4.07,13.84,13.84,0,0,1-11.43,5.63c-4.07,0-9.07-1.56-11.11-9.7,0-.15-1.25-.93-1.56-.78a119.5,119.5,0,0,1-12,7.51,16.67,16.67,0,0,1-8.29,2.35c-4.7,0-14.87-5.79-14.87-18.47a11.76,11.76,0,0,1,2.35-7.51,14.52,14.52,0,0,1,6.26-4.53c15.8-3.76,23.16-5.64,26.6-7.51a3,3,0,0,0,1.72-2.35v-5.95a11.12,11.12,0,0,0-.47-4.06c-2.19-6.11-8.92-8.77-13.77-8.77-3.28,0-6.41,1.41-7,2s-1.25,3-1.56,7.66a5.13,5.13,0,0,1-1.41,3.45,11.71,11.71,0,0,1-4.54,1.25c-1.25,0-5.16-.16-6.57-.78a4.15,4.15,0,0,1-1.88-2.51c0-2.66,4.54-7.51,11.26-12.2,6-3.92,13.15-7,18.47-7C566.26,693.15,570.17,694.87,574.71,699.09Zm-8.61,45.54a15.4,15.4,0,0,0,1.25-4.7l.16-10c0-.63-.78-.94-1.25-.94a153.24,153.24,0,0,0-16.74,4.07c-4.38,1.56-5.79,3.28-5.79,7.19,0,5,4.69,9.71,10.48,9.71C557.65,750,562.66,747.91,566.1,744.63Z"/><path class="cls-1" d="M603.5,698.94c2.51-1.41,7.36-3.6,10.64-5.32,2-.94,3.29-1.57,4.54-1.57.63,0,1.88,1.72,1.88,2.19.15,2.19.15,5.32.31,7.67,0,.47,1.1,1.09,1.56.47,4.54-5,10.8-9.23,16.9-9.23,4.54,0,8.61,3.12,8.61,4.85,0,3.44-4.07,7.82-6.26,9.54a4.21,4.21,0,0,1-2.5,1.25c-1.1,0-2-.47-3.6-1.56a10.5,10.5,0,0,0-5.63-1.88,8.4,8.4,0,0,0-7.2,3.6,7.84,7.84,0,0,0-1.41,3.6c0,1.56-.16,24.09.31,29.57.47,7.36,1.72,8.92,8.77,10.8,3.59.94,5.63,2.19,5.63,3.6,0,1.25-2,2.66-3.91,2.66-4.85,0-12.83-.63-17.37-.63-5.48,0-8.29.47-12.68.47-2.81,0-4.22-1.72-4.22-2.5,0-1.72,1.72-2.66,3.6-3.29,6.1-2.19,6.57-4.54,6.73-8.14.31-7,.47-26.28.47-34.58,0-.93-.16-2-3.92-4.69-1.72-1.25-3.44-2.66-3.44-3.6A3.78,3.78,0,0,1,603.5,698.94Z"/><path class="cls-1" d="M707.09,702.53c2,3,2.66,7.05,2.66,11,0,1.72-2.66,4.69-4.22,4.69-1.1,0-30.83.47-33.65.47a4.33,4.33,0,0,0-2.5,1.72c-.63,1.1-.78,3.91-.78,4.85,0,13.93,10.48,24.57,23.94,24.57,6.1,0,12.83-3.91,15.8-5.95.63-.47,1.88.32,1.88,2a7.47,7.47,0,0,1-2,4.85,31.32,31.32,0,0,1-22.38,9.7c-19.56,0-30.67-13.3-30.67-32.39,0-12.67,5.79-23.47,15.18-29.57a33.36,33.36,0,0,1,18.31-5.32C696.14,693.15,703.33,696.43,707.09,702.53Zm-36.61,8.92a1.64,1.64,0,0,0,.94,1.57c1.72.15,6.88.31,11.42.31,5.94,0,13.14-.31,13.14-5.63,0-4.7-3.76-8.92-12.05-8.92C680,698.78,672.51,703.63,670.48,711.45Z"/><path class="cls-2" d="M597.54,517.52c-42.55,3.22-41.78-41.77-41.78-41.77,0-36,21.29-43.13,33.47-44.26a41.43,41.43,0,0,1,6,0q1.14.06,2.31.06a44.2,44.2,0,1,0-44.2-44.2c0,41.19-28.94,44.43-38.63,44.36-1.05-.08-2.09-.16-3.15-.16-55.09,0-47.83-44.2-47.83-44.2a44.19,44.19,0,0,0-44.19-44.2c-42-.13-46.85-25.53-46.94-36.66a45.37,45.37,0,0,0,.32-5.11S371,259,413.48,256a44.2,44.2,0,1,0-44.2-44.2c0,.09,0,.18,0,.28.17,3.61,1.18,45-40.58,45.13a44.2,44.2,0,1,0,0,88.39,42.26,42.26,0,0,0,4.66-.25c13.7-.11,23.08,6.22,29.45,14,13.28,16.24,13.37,39.72.89,56.58-6,8-7.24,15.65-27.74,15.65a44.19,44.19,0,0,0-44.19,44.8c.32,24.32,20.9,43.21,45.22,43.6,41.23.67,43.17,41.77,43.17,41.77a44.2,44.2,0,1,0,44.2-44.2c-44.62,0-44.2-41.77-44.2-41.77,0-.87-.08-1.71-.13-2.56-.2-9.52,1.78-41.64,39.49-41.64,49.55,0,44.55,28.77,47,39.89a42.11,42.11,0,0,1,.85,6.9,43.91,43.91,0,0,0,49.91,41.18c34.38-1,36.33,30.13,36.13,39.54-.06.88-.14,1.76-.14,2.66a44.2,44.2,0,1,0,44.2-44.2Z"/></svg>