<svg width="50" height="50" viewBox="0 0 50 50" fill="none" xmlns="http://www.w3.org/2000/svg">
<g clip-path="url(#clip0_325_69)">
<path d="M39.8749 32.6726C39.9583 32.0476 39.9999 31.4018 39.9999 30.7143C39.9999 30.0476 39.9583 29.381 39.8541 28.756L44.0833 25.4643C44.4583 25.1726 44.5624 24.6101 44.3333 24.1935L40.3333 17.2768C40.0833 16.8185 39.5624 16.6726 39.1041 16.8185L34.1249 18.8185C33.0833 18.0268 31.9791 17.3601 30.7499 16.8601L29.9999 11.5685C29.9166 11.0685 29.4999 10.7143 28.9999 10.7143H20.9999C20.4999 10.7143 20.1041 11.0685 20.0208 11.5685L19.2708 16.8601C18.0416 17.3601 16.9166 18.0476 15.8958 18.8185L10.9166 16.8185C10.4583 16.6518 9.93744 16.8185 9.68744 17.2768L5.70828 24.1935C5.45828 24.631 5.54161 25.1726 5.95828 25.4643L10.1874 28.756C10.0833 29.381 9.99994 30.0685 9.99994 30.7143C9.99994 31.3601 10.0416 32.0476 10.1458 32.6726L5.91661 35.9643C5.54161 36.256 5.43744 36.8185 5.66661 37.2351L9.66661 44.1518C9.91661 44.6101 10.4374 44.756 10.8958 44.6101L15.8749 42.6101C16.9166 43.4018 18.0208 44.0685 19.2499 44.5685L19.9999 49.8601C20.1041 50.3601 20.4999 50.7143 20.9999 50.7143H28.9999C29.4999 50.7143 29.9166 50.3601 29.9791 49.8601L30.7291 44.5685C31.9583 44.0685 33.0833 43.4018 34.1041 42.6101L39.0833 44.6101C39.5416 44.7768 40.0624 44.6101 40.3124 44.1518L44.3124 37.2351C44.5624 36.7768 44.4583 36.256 44.0624 35.9643L39.8749 32.6726ZM24.9999 38.2143C20.8749 38.2143 17.4999 34.8393 17.4999 30.7143C17.4999 26.5893 20.8749 23.2143 24.9999 23.2143C29.1249 23.2143 32.4999 26.5893 32.4999 30.7143C32.4999 34.8393 29.1249 38.2143 24.9999 38.2143Z" fill="black"/>
</g>
<defs>
<clipPath id="clip0_325_69">
<rect width="50" height="50" fill="white"/>
</clipPath>
</defs>
</svg>
